<svg width="3" height="11" viewBox="0 0 3 11" fill="none" xmlns="http://www.w3.org/2000/svg">
<path d="M2.22202 1.11133C2.2219 1.72488 1.72426 2.22201 1.11069 2.22201C0.49721 2.22189 0.000127696 1.72481 1.04551e-05 1.11133C1.04819e-05 0.497751 0.497138 0.000117184 1.11069 -4.85777e-08C1.72434 -2.17542e-08 2.22202 0.497678 2.22202 1.11133ZM2.22202 5.38867C2.22202 6.00232 1.72434 6.5 1.11069 6.5C0.497137 6.49988 1.02413e-05 6.00225 1.02681e-05 5.38867C0.000127627 4.77519 0.49721 4.27811 1.11069 4.27799C1.72426 4.27799 2.2219 4.77512 2.22202 5.38867ZM2.22201 9.66667C2.22201 10.2803 1.72434 10.778 1.11069 10.778C0.497137 10.7779 1.00543e-05 10.2802 1.00811e-05 9.66667C1.01079e-05 9.05309 0.497137 8.55546 1.11069 8.55534C1.72434 8.55534 2.22201 9.05302 2.22201 9.66667Z" fill="#FAFCFF"/>
</svg>
